<?xml version="1.0" standalone="no"?>
<!DOCTYPE svg PUBLIC "-//W3C//DTD SVG 20010904//EN"
 "http://www.w3.org/TR/2001/REC-SVG-20010904/DTD/svg10.dtd">
<svg version="1.0" xmlns="http://www.w3.org/2000/svg"
 width="577.000000pt" height="433.000000pt" viewBox="0 0 577.000000 433.000000"
 preserveAspectRatio="xMidYMid meet">

<g transform="translate(0.000000,433.000000) scale(0.100000,-0.100000)"
fill="#000000" stroke="none">
<path d="M2806 4212 c-3 -6 -7 -44 -7 -84 -1 -40 -5 -77 -9 -83 -5 -6 3 -10
20 -10 17 0 25 4 21 10 -4 6 -6 39 -5 75 2 67 -7 112 -20 92z"/>
<path d="M2780 3998 c0 -4 14 -8 30 -8 17 0 30 2 30 4 0 2 -13 6 -30 8 -16 3
-30 1 -30 -4z"/>
<path d="M2760 3952 c0 -4 25 -8 55 -8 30 -1 52 3 49 7 -7 11 -104 12 -104 1z"/>
<path d="M2710 3904 c-11 -12 3 -14 99 -14 61 0 111 4 111 9 0 14 -20 18 -112
19 -64 1 -89 -3 -98 -14z"/>
<path d="M2670 3865 c0 -20 -6 -25 -35 -31 -53 -10 -41 -44 16 -44 17 0 19 -8
19 -94 0 -63 -4 -97 -12 -103 -7 -5 -51 -15 -97 -22 -206 -30 -461 -130 -636
-249 -362 -246 -606 -613 -685 -1033 -7 -35 -15 -67 -19 -71 -3 -4 -105 -12
-225 -18 -121 -5 -222 -12 -225 -15 -2 -3 1 -15 7 -28 6 -12 12 -33 14 -47 2
-14 6 -24 11 -22 4 1 21 2 37 2 28 0 30 2 30 41 0 28 4 39 13 36 6 -2 12 -17
12 -33 1 -21 5 -29 18 -28 9 0 33 1 52 2 32 2 35 5 35 32 0 20 5 30 15 30 10
0 15 -11 15 -35 l0 -35 64 0 65 0 3 37 c2 27 8 39 21 41 14 3 17 -4 17 -32 0
-34 2 -36 34 -36 18 0 54 3 80 6 43 6 46 9 46 35 0 16 5 29 10 29 6 0 13 0 18
0 4 1 9 -15 12 -35 3 -20 8 -36 13 -35 4 0 48 0 97 0 l90 0 0 46 c0 41 2 45
23 42 18 -2 23 -10 25 -41 l3 -38 97 3 97 3 3 38 c3 32 7 37 28 37 22 0 24 -4
24 -45 l0 -46 113 3 112 3 3 48 c3 46 4 48 30 45 22 -2 28 -9 30 -35 l3 -33
115 0 114 0 0 35 c0 31 3 35 25 35 23 0 25 -4 25 -45 l0 -45 84 0 85 0 3 38
c3 32 7 37 30 40 24 3 27 0 30 -35 l3 -38 117 -3 117 -3 3 38 c3 33 6 38 28
38 22 0 25 -5 28 -37 l3 -38 84 0 84 0 3 38 c3 32 6 37 28 37 22 0 25 -5 28
-38 l3 -38 112 3 112 3 3 38 c3 35 6 38 30 35 24 -3 27 -8 30 -46 l3 -43 112
3 112 3 3 43 c3 38 6 43 25 40 18 -2 23 -11 25 -41 l3 -38 97 3 97 3 3 38 c3
33 6 38 25 35 18 -2 23 -11 25 -45 l3 -43 85 0 c46 0 87 -1 92 -2 4 -2 8 14
10 35 3 29 7 37 23 37 14 0 19 -7 19 -29 0 -27 2 -28 61 -35 97 -10 97 -10
101 26 2 22 9 34 21 36 14 3 17 -4 17 -37 l0 -41 70 0 70 0 0 36 c0 42 23 43
28 1 3 -23 8 -27 38 -28 19 -1 40 -2 46 -3 7 -1 15 12 18 28 7 42 24 38 28 -5
3 -34 6 -37 38 -41 33 -4 34 -3 34 28 0 18 5 36 10 39 6 4 10 -6 10 -23 0 -21
6 -31 19 -35 24 -6 31 0 31 28 0 11 5 26 12 33 8 8 8 15 2 21 -7 7 -399 31
-505 31 -24 0 -27 5 -34 46 -20 139 -79 314 -156 464 -164 323 -451 593 -789
740 -100 44 -280 96 -382 111 -46 7 -86 15 -90 18 -11 10 -14 194 -3 197 6 1
22 5 38 8 31 7 37 36 8 36 -11 0 -32 5 -48 11 -16 6 -86 10 -162 9 -130 -1
-133 0 -128 20 3 11 1 20 -4 20 -5 0 -9 -11 -9 -25z m58 -185 c-2 -56 -7 -85
-15 -88 -10 -3 -13 19 -13 86 0 49 3 92 7 96 16 16 24 -17 21 -94z m142 -1 l0
-89 -45 0 -45 0 0 89 0 90 33 3 c55 6 57 3 57 -93z m69 1 c2 -75 0 -90 -13
-90 -13 0 -16 15 -16 88 0 49 3 92 6 95 16 15 21 -8 23 -93z m-51 -179 c94
-50 201 -291 266 -599 29 -137 64 -434 68 -576 l3 -99 -410 1 -410 2 -3 22
c-4 24 12 233 29 368 61 504 199 861 346 897 38 10 73 5 111 -16z m-228 13 c0
-3 -13 -22 -30 -42 -124 -156 -240 -568 -280 -997 -7 -71 -15 -157 -19 -190
l-6 -60 -319 -3 -318 -2 7 57 c42 351 217 728 442 950 148 146 290 233 458
278 58 16 65 17 65 9z m476 -42 c293 -117 556 -414 694 -787 43 -116 95 -315
106 -407 l6 -58 -315 0 c-198 0 -318 4 -322 10 -3 5 -10 65 -16 132 -21 273
-78 597 -135 773 -52 159 -129 322 -169 355 -8 7 -15 16 -15 20 0 11 103 -13
166 -38z m-913 -90 c-294 -219 -518 -633 -583 -1081 l-12 -78 -111 -6 c-62 -4
-138 -7 -169 -7 -69 0 -68 -3 -38 128 103 462 430 860 870 1058 52 24 101 43
108 43 8 1 -22 -25 -65 -57z m1219 16 c386 -173 689 -499 827 -891 35 -99 56
-180 66 -249 l6 -48 -58 0 c-32 0 -108 3 -170 7 l-112 6 -7 46 c-41 287 -134
551 -271 763 -96 149 -248 310 -356 376 -20 13 -37 26 -37 28 0 10 26 1 112
-38z"/>
<path d="M2935 3880 c3 -5 8 -10 11 -10 2 0 4 5 4 10 0 6 -5 10 -11 10 -5 0
-7 -4 -4 -10z"/>
<path d="M4630 2441 c23 -6 25 -12 28 -69 4 -82 22 -80 22 2 0 59 2 65 23 69
12 2 -5 4 -38 5 -39 0 -51 -2 -35 -7z"/>
<path d="M4748 2385 c-1 -37 0 -69 5 -72 4 -2 7 19 7 47 0 61 12 58 30 -5 7
-25 18 -44 23 -42 6 2 18 25 28 53 18 53 26 48 32 -21 2 -23 4 -8 5 33 2 86
-13 93 -37 19 -9 -26 -20 -48 -25 -49 -5 -2 -17 19 -26 46 -24 72 -38 69 -42
-9z"/>
<path d="M1760 2094 c-429 -8 -943 -27 -968 -35 -18 -6 11 -7 83 -4 539 25
2009 38 2911 25 533 -8 1089 -25 1127 -36 9 -3 17 -1 17 4 0 13 -113 21 -380
27 -124 4 -241 8 -260 11 -40 5 -2297 13 -2530 8z"/>
<path d="M1340 2050 c-426 -12 -564 -20 -551 -33 6 -6 11 -29 11 -50 l0 -39
18 22 c17 21 19 21 32 5 11 -13 15 -46 15 -124 l0 -106 -30 -2 c-16 0 -38 -2
-47 -2 -10 -1 -18 -5 -18 -11 0 -7 702 -10 2085 -10 1383 0 2085 3 2085 10 0
11 -16 13 -67 10 l-33 -2 0 109 c0 76 4 115 13 128 16 20 37 13 37 -13 0 -9 4
-23 9 -30 5 -8 9 10 10 47 1 55 0 61 -21 66 -109 25 -2830 44 -3548 25z m-140
-50 c0 -19 -7 -20 -180 -20 -173 0 -180 1 -180 20 0 19 7 20 180 20 173 0 180
-1 180 -20z m80 -130 c0 -143 -1 -150 -20 -150 -19 0 -20 7 -20 150 0 143 1
150 20 150 19 0 20 -7 20 -150z m810 130 c0 -20 -7 -20 -339 -20 -216 0 -342
4 -346 10 -17 27 17 30 346 30 332 0 339 0 339 -20z m190 -130 l0 -150 -30 0
-30 0 0 150 0 150 30 0 30 0 0 -150z m1060 130 c0 -20 -7 -20 -490 -20 -483 0
-490 0 -490 20 0 20 7 20 490 20 483 0 490 0 490 -20z m150 -130 l0 -150 -30
0 -30 0 0 150 0 150 30 0 30 0 0 -150z m813 144 c3 -3 3 -12 0 -20 -4 -12 -63
-14 -349 -14 -337 0 -344 0 -344 20 0 20 7 20 343 20 189 0 346 -3 350 -6z
m162 -144 c0 -130 -2 -145 -17 -148 -17 -3 -18 9 -18 148 0 139 1 151 18 148
15 -3 17 -18 17 -148z m395 130 c0 -19 -7 -20 -174 -20 -106 0 -177 4 -181 10
-16 25 13 30 181 30 167 0 174 -1 174 -20z m-3880 -62 c17 -28 20 -47 18 -123
l-3 -90 -45 0 -45 0 0 101 c0 86 3 105 19 123 26 28 33 27 56 -11z m191 21
c11 -5 24 -22 30 -36 11 -31 15 -175 5 -192 -5 -8 -30 -11 -72 -10 l-64 2 0
79 c0 84 16 139 47 157 23 13 30 13 54 0z m272 -9 c32 -25 45 -66 47 -147 1
-73 -9 -83 -89 -83 -80 0 -81 1 -81 94 1 88 12 121 51 142 33 18 42 17 72 -6z
m325 0 c43 -26 52 -55 50 -148 l-2 -77 -6 75 -6 75 -2 -77 -2 -78 -80 0 -80 0
-2 78 -2 77 -6 -75 -6 -75 -2 86 c-2 75 1 90 19 113 38 48 77 56 127 26z m367
-20 c28 -29 30 -36 34 -121 2 -65 0 -89 -8 -85 -7 4 -11 40 -11 87 0 76 -2 82
-29 110 -31 31 -64 36 -104 18 -38 -17 -51 -49 -57 -139 l-7 -85 -1 90 c-2
102 8 127 62 151 42 19 85 10 121 -26z m393 20 c43 -26 52 -55 50 -153 l-1
-82 -6 85 c-6 88 -18 123 -47 134 -10 4 -7 -5 10 -25 25 -29 27 -38 24 -108
l-3 -76 -82 -3 -83 -3 0 86 c0 80 2 88 26 110 14 13 40 26 57 28 l32 4 -33 1
c-25 2 -41 -5 -63 -27 -27 -28 -29 -34 -29 -110 0 -44 -4 -83 -10 -86 -15 -9
-12 145 3 175 15 30 73 70 101 70 12 0 36 -9 54 -20z m380 0 c18 -11 37 -32
42 -46 13 -34 13 -194 0 -174 -6 10 -10 11 -10 3 0 -10 -24 -13 -85 -13 l-85
0 0 75 c0 106 19 137 90 148 20 3 18 5 -8 6 -25 1 -41 -7 -63 -28 -28 -28 -29
-34 -29 -116 0 -55 -4 -84 -10 -80 -15 9 -12 131 4 170 16 36 67 75 101 75 11
0 35 -9 53 -20z m380 0 c43 -26 52 -55 50 -153 l-2 -82 -6 80 -6 80 -2 -77 -2
-78 -85 0 -85 0 0 79 c0 71 3 83 26 110 17 21 20 29 10 25 -30 -12 -46 -60
-46 -139 0 -48 -4 -74 -10 -70 -16 10 -12 142 5 176 18 33 69 69 100 69 11 0
35 -9 53 -20z m437 -20 c28 -28 30 -36 34 -115 2 -57 -1 -85 -8 -85 -7 0 -11
29 -11 81 0 76 -2 82 -29 110 -22 21 -38 29 -63 28 l-33 -1 39 -8 c62 -12 76
-37 76 -136 l0 -84 -80 0 c-52 0 -80 4 -80 11 0 8 -5 8 -15 -1 -13 -11 -15 -2
-15 70 0 66 4 89 20 116 38 61 112 67 165 14z m306 24 c41 -21 59 -68 59 -153
0 -80 -1 -81 -112 -81 l-68 0 -2 78 -2 77 -3 -72 c-5 -95 -23 -94 -23 1 0 81
22 129 70 153 33 17 45 16 81 -3z m320 -13 c16 -16 30 -40 30 -53 7 -131 4
-157 -16 -162 -27 -8 -110 -7 -129 0 -22 8 -22 143 0 189 27 58 72 68 115 26z
m256 -10 c19 -29 23 -47 23 -116 0 -92 -2 -95 -70 -95 -68 0 -70 3 -70 92 0
82 15 128 47 147 27 16 45 9 70 -28z m180 12 c14 -21 18 -48 18 -123 l0 -95
-45 0 -45 0 0 101 c0 86 3 105 19 123 25 27 32 27 53 -6z m-2672 -28 c23 -22
25 -32 25 -110 l0 -86 -82 3 -83 3 0 83 c0 79 1 85 28 108 37 31 81 31 112 -1z"/>
<path d="M1120 1940 c-18 -12 -2 -12 25 0 13 6 15 9 5 9 -8 0 -22 -4 -30 -9z"/>
<path d="M1398 1943 c7 -3 16 -2 19 1 4 3 -2 6 -13 5 -11 0 -14 -3 -6 -6z"/>
<path d="M1708 1943 c6 -2 18 -2 25 0 6 3 1 5 -13 5 -14 0 -19 -2 -12 -5z"/>
<path d="M1654 1915 c-9 -14 -14 -28 -10 -32 3 -3 6 -1 6 5 0 7 9 21 20 32 11
11 16 20 10 20 -5 0 -17 -11 -26 -25z"/>
<path d="M1770 1920 c11 -11 20 -25 20 -32 0 -6 3 -8 6 -5 8 8 -23 57 -36 57
-6 0 -1 -9 10 -20z"/>
<path d="M2912 1912 c13 -16 25 -25 27 -20 4 11 -28 48 -41 48 -5 0 1 -13 14
-28z"/>
<path d="M2943 1810 c0 -36 2 -50 4 -32 2 17 2 47 0 65 -2 17 -4 3 -4 -33z"/>
<path d="M3223 1943 c9 -2 23 -2 30 0 6 3 -1 5 -18 5 -16 0 -22 -2 -12 -5z"/>
<path d="M3292 1912 c13 -16 25 -25 27 -20 4 11 -28 48 -41 48 -5 0 1 -13 14
-28z"/>
<path d="M3586 1924 c-23 -23 -20 -30 4 -9 11 10 20 20 20 22 0 7 -9 2 -24
-13z"/>
<path d="M3558 1867 c-3 -19 -2 -25 4 -19 6 6 8 18 6 28 -3 14 -5 12 -10 -9z"/>
<path d="M3562 1770 c0 -14 2 -19 5 -12 2 6 2 18 0 25 -3 6 -5 1 -5 -13z"/>
<path d="M3943 1933 c-10 -10 -13 -14 -6 -9 7 5 28 12 46 16 29 7 30 8 6 9
-15 1 -35 -7 -46 -16z"/>
<path d="M4037 1918 c11 -13 23 -30 26 -38 5 -13 6 -13 6 0 1 20 -27 60 -41
60 -6 0 -2 -10 9 -22z"/>
<path d="M4268 1936 c-10 -7 -18 -17 -18 -21 0 -5 8 -1 18 7 9 9 26 18 37 21
l20 5 -20 1 c-11 0 -28 -6 -37 -13z"/>
<path d="M4560 1943 c8 -3 22 -11 30 -17 13 -10 13 -9 1 7 -7 9 -21 17 -30 16
-13 0 -14 -1 -1 -6z"/>
<path d="M813 1422 l-42 -3 2 -322 2 -322 60 0 60 0 3 115 c1 63 6 118 11 123
4 4 24 -34 44 -85 20 -51 46 -108 57 -126 19 -31 24 -33 67 -30 l47 3 39 90
c21 50 46 108 57 130 l19 40 0 -117 c1 -64 4 -123 7 -132 5 -12 21 -16 75 -16
58 0 70 3 79 20 11 20 14 564 4 607 -7 25 -26 30 -98 24 l-48 -3 -45 -97 c-87
-189 -137 -291 -142 -291 -3 0 -15 20 -25 43 -11 23 -36 78 -57 122 -20 44
-50 110 -67 147 -34 74 -48 85 -109 80z"/>
<path d="M1560 1418 c-20 -7 -20 -16 -18 -325 l3 -318 75 0 75 0 0 320 0 320
-58 5 c-31 3 -66 2 -77 -2z"/>
<path d="M2828 1423 c-11 -3 -18 -14 -18 -28 0 -41 112 -560 130 -602 9 -21
16 -23 89 -23 76 0 79 1 89 28 13 32 67 222 77 270 4 17 10 32 14 32 4 0 25
-64 45 -142 51 -192 48 -188 141 -188 69 0 76 2 85 23 16 36 130 568 130 605
0 21 -24 32 -77 32 -64 0 -79 -13 -92 -82 -28 -143 -54 -239 -62 -231 -4 4
-24 71 -44 148 -22 83 -43 145 -53 153 -18 14 -102 14 -138 1 -22 -8 -24 -12
-70 -194 -14 -55 -29 -104 -33 -108 -5 -5 -16 27 -26 70 -33 153 -54 226 -67
234 -13 9 -90 10 -120 2z"/>
<path d="M4379 1418 c-20 -8 -20 -15 -17 -220 3 -211 4 -214 31 -270 53 -106
140 -168 247 -176 101 -7 202 39 260 119 l30 42 0 256 0 256 -51 -2 c-28 0
-56 -6 -63 -13 -7 -7 -11 -71 -11 -198 -1 -156 -3 -192 -18 -219 -47 -88 -151
-109 -214 -43 -45 49 -51 80 -52 278 -1 145 -4 184 -15 188 -22 8 -106 10
-127 2z"/>
<path d="M1827 1414 c-12 -12 -8 -129 5 -142 7 -7 43 -12 90 -12 l78 0 2 -242
3 -243 75 0 75 0 5 240 5 240 75 3 c41 2 80 8 87 14 10 8 13 31 11 77 l-3 66
-251 3 c-138 1 -253 -1 -257 -4z"/>
<path d="M3737 1414 c-8 -9 -10 -606 -1 -628 5 -12 21 -16 75 -16 65 0 70 2
79 26 6 14 10 63 10 110 l0 84 88 0 c171 1 255 73 256 220 0 79 -23 129 -78
174 l-38 31 -192 3 c-105 2 -195 0 -199 -4z m333 -164 c24 -24 25 -48 4 -78
-13 -20 -24 -22 -94 -22 l-78 0 -4 56 c-1 31 -1 58 1 60 2 2 37 4 78 4 60 0
77 -4 93 -20z"/>
<path d="M2432 1138 c-17 -17 -15 -74 4 -92 12 -13 39 -16 128 -16 130 0 139
5 134 72 l-3 43 -125 3 c-89 2 -129 -1 -138 -10z"/>
<path d="M2575 455 c-22 -8 -41 -15 -42 -15 -2 0 -3 -16 -3 -35 l0 -35 -112
-1 c-62 -1 -105 -3 -96 -6 24 -6 31 -37 26 -117 -2 -48 0 -66 10 -66 9 0 12
25 12 90 l0 90 35 0 35 0 0 -90 c0 -116 18 -118 22 -2 l3 87 35 0 35 0 0 -87
c-1 -66 2 -88 12 -88 10 0 13 23 13 90 l0 91 148 -3 c139 -3 147 -4 147 -23 0
-17 -8 -20 -50 -23 -27 -1 -57 -5 -65 -8 -8 -4 -41 -6 -72 -4 -64 2 -75 -12
-38 -45 19 -18 20 -17 20 3 0 15 8 24 25 28 34 8 55 -1 55 -25 0 -22 46 -81
63 -81 6 0 1 10 -11 23 -24 26 -36 67 -24 85 6 9 25 12 53 10 l44 -3 3 -57 c5
-90 22 -68 22 27 0 79 2 86 23 95 26 10 4 12 -199 10 -140 -1 -163 6 -149 49
13 42 94 40 194 -4 74 -33 93 -27 24 8 -37 19 -141 50 -156 47 -1 -1 -20 -7
-42 -15z"/>
<path d="M1717 442 c-10 -10 -17 -31 -17 -45 0 -19 -5 -27 -17 -28 -14 0 -13
-2 5 -9 20 -9 22 -16 22 -95 0 -112 18 -110 22 3 l3 87 77 3 c76 3 78 2 84
-23 8 -34 -6 -85 -29 -99 -22 -14 -51 3 -55 33 -3 16 5 25 30 36 28 12 30 14
10 15 -39 0 -62 -18 -62 -49 0 -42 31 -65 75 -57 34 7 36 6 30 -13 -4 -15 -2
-21 8 -21 12 0 15 16 16 78 0 42 0 83 0 90 1 6 9 12 19 13 14 0 14 2 -3 8 -11
4 -61 6 -111 3 -89 -4 -92 -4 -99 19 -6 17 -2 27 15 41 12 10 31 18 42 18 22
0 94 -35 103 -50 3 -5 11 -10 17 -10 19 0 -25 42 -59 56 -47 20 -106 18 -126
-4z"/>
<path d="M3071 441 c-7 -13 -6 -23 2 -35 12 -16 13 -15 12 10 0 21 6 29 25 35
l25 7 -27 1 c-17 1 -31 -6 -37 -18z"/>
<path d="M3260 450 c0 -5 7 -10 15 -10 8 0 15 5 15 10 0 6 -7 10 -15 10 -8 0
-15 -4 -15 -10z"/>
<path d="M2941 368 c-9 -24 -4 -55 10 -64 5 -3 6 -16 3 -29 -7 -28 11 -65 31
-65 20 0 19 -16 -1 -24 -8 -3 -12 -11 -9 -16 4 -6 22 2 45 20 21 16 41 30 45
30 4 0 5 -17 2 -39 -4 -33 -2 -38 12 -34 10 2 23 -2 30 -11 10 -12 8 -17 -11
-30 -22 -14 -31 -14 -79 -2 -64 17 -77 12 -26 -9 42 -17 90 -19 118 -5 25 14
24 55 -1 73 -19 13 -21 23 -18 103 l3 89 85 0 85 0 -3 -49 c-3 -57 -16 -78
-45 -74 -48 7 -46 74 2 72 11 0 21 3 21 8 0 11 -37 10 -61 -2 -25 -14 -25 -62
1 -85 14 -12 28 -16 50 -12 25 6 30 3 30 -13 0 -11 7 -20 15 -20 12 0 15 17
15 90 0 78 2 90 18 92 9 1 -37 4 -103 7 -66 4 -131 3 -145 -1 -15 -4 -18 -7
-7 -7 14 -1 17 -11 17 -54 0 -62 -11 -77 -57 -77 -43 0 -55 26 -25 51 25 20
29 31 8 23 -18 -7 -48 24 -44 45 2 8 12 17 22 19 15 3 18 0 13 -17 -6 -24 5
-27 23 -6 10 12 10 18 0 30 -19 23 -59 19 -69 -7z"/>
<path d="M3472 378 c-16 -16 -16 -50 1 -67 6 -6 12 -28 12 -49 0 -28 5 -39 23
-48 22 -11 22 -12 6 -28 -29 -30 -9 -27 32 4 21 16 42 30 47 30 12 0 8 -48 -5
-57 -9 -5 -3 -9 17 -13 39 -7 45 -36 11 -51 -20 -9 -35 -8 -73 4 -57 19 -71
13 -20 -8 50 -21 100 -19 121 4 20 22 15 56 -9 65 -12 4 -15 26 -15 101 l0 96
83 -3 82 -3 3 -46 c3 -52 -16 -82 -51 -77 -52 8 -46 67 9 79 l29 7 -32 1 c-56
2 -79 -42 -47 -88 14 -20 22 -22 55 -17 34 6 39 4 39 -14 0 -11 4 -20 10 -20
5 0 11 39 12 88 l3 87 30 0 30 0 3 -88 c4 -112 22 -114 22 -2 0 79 2 86 23 95
14 6 -44 9 -168 9 -134 0 -185 -3 -172 -10 12 -7 17 -23 17 -53 0 -50 -22 -76
-64 -76 -36 0 -46 28 -18 51 22 17 31 36 12 24 -5 -3 -19 -1 -30 5 -26 14 -23
53 3 58 15 3 18 0 12 -18 -5 -16 -3 -21 6 -18 8 3 14 16 14 29 0 18 -6 25 -25
27 -14 2 -31 -3 -38 -10z"/>
<path d="M1377 373 c-11 -11 -8 -193 3 -193 6 0 10 40 10 100 0 100 -1 106
-13 93z"/>
<path d="M2001 371 c-10 -6 -12 -19 -8 -40 5 -23 3 -33 -8 -37 -8 -4 -15 -10
-15 -15 0 -5 15 -2 33 7 29 14 36 14 70 -1 58 -24 47 -67 -21 -81 -25 -5 -33
-3 -38 11 -8 19 13 38 33 30 7 -2 15 0 18 4 8 14 -23 21 -50 11 -17 -7 -25
-17 -25 -35 0 -29 31 -41 85 -31 22 4 35 3 35 -4 0 -5 5 -10 10 -10 6 0 10 35
10 85 0 79 2 86 23 95 19 8 17 9 -15 9 -36 1 -37 1 -31 -33 6 -36 -5 -50 -32
-40 -11 5 -15 14 -11 30 12 46 -23 70 -63 45z m47 -28 c-2 -10 -10 -18 -18
-18 -8 0 -16 8 -18 18 -2 12 3 17 18 17 15 0 20 -5 18 -17z"/>
<path d="M2218 369 c-38 -22 -11 -87 32 -76 27 7 27 -19 0 -33 -12 -6 -30 -8
-40 -5 -34 11 -23 -19 19 -53 22 -18 43 -28 46 -22 3 5 -3 15 -15 22 -23 15
-27 38 -5 38 8 0 22 14 30 31 19 36 12 85 -15 99 -23 12 -30 12 -52 -1z m49
-28 c14 -22 8 -31 -23 -31 -27 0 -36 12 -28 34 8 22 37 20 51 -3z"/>
<path d="M4128 373 c-9 -17 -3 -188 7 -193 13 -6 19 180 7 192 -6 6 -12 6 -14
1z"/>
<path d="M4250 281 c0 -61 4 -101 10 -101 6 0 10 38 10 94 0 53 -4 98 -10 101
-6 4 -10 -30 -10 -94z"/>
<path d="M1491 275 c1 -75 4 -95 15 -95 11 0 14 20 14 95 0 78 -3 95 -15 95
-12 0 -15 -17 -14 -95z"/>
</g>
</svg>
